<?xml version="1.0" encoding="UTF-8"?>
<svg viewBox="0 0 240 87" xmlns="http://www.w3.org/2000/svg">
<mask id="d" fill="#fff">
<path d="m0 0.076629h43.332v82.051h-43.332z" fill="#fff" fill-rule="evenodd"/>
</mask>
<mask id="c" fill="#fff">
<path d="m0.34994 0.23323h18.894v18.563h-18.894z" fill="#fff" fill-rule="evenodd"/>
</mask>
<g fill-rule="evenodd">
<path transform="translate(0 4.6388)" d="m43.332 76.825c-0.02289 2.949-2.4222 5.3223-5.3618 5.3035h-0.11792c-11.792 0-21.454-10.44-21.454-23.288 0-6.431-4.8971-11.929-10.724-11.929-3.1644-0.030624-5.7045-2.6302-5.674-5.8046 0.03052-3.1752 2.6206-5.7239 5.785-5.6933 5.8335 0 10.613-5.387 10.613-11.936 0-12.869 9.711-23.4 21.572-23.4 2.9306-0.001392 5.3071 2.3817 5.3084 5.3223s-2.3736 5.3251-5.3043 5.3265h-0.12208c-2.7746 0-5.4798 1.392-7.5815 3.7445-2.0247 2.5641-3.1332 5.735-3.1491 9.0062-0.021503 6.6774-2.7572 13.057-7.5746 17.664 4.8541 4.5818 7.5975 10.978 7.5746 17.664 0.0069364 3.2858 1.1161 6.4735 3.1491 9.048 1.8479 2.3163 4.6259 3.6881 7.5815 3.7452 1.8659-0.035496 5.4798 1.4825 5.4798 5.227" fill="#f5b32e" mask="url(#d)"/>
<path d="m190.09 72.457c2.0331-2.5752 3.1422-5.7622 3.1491-9.048-0.02289-6.6865 2.7198-13.083 7.5746-17.664-4.8173-4.6075-7.5531-10.987-7.5746-17.664-0.015953-3.2705-1.1251-6.4422-3.1491-9.0062-2.0809-2.3386-4.7799-3.7445-7.5822-3.7445h-0.12416c-2.9306 0.001392-5.3077-2.3817-5.3091-5.3223-6.94e-4 -2.9406 2.3743-5.3251 5.305-5.3265h0.004162c11.896 0 21.572 10.53 21.572 23.4 0 6.5494 4.7799 11.936 10.613 11.936 3.1533-0.13642 5.821 2.3184 5.957 5.4824 0.13595 3.164-2.3098 5.8401-5.4638 5.9766-0.12763 0.005568-0.25457 0.00696-0.38289 0.004176-5.8259 0-10.724 5.4984-10.724 11.929 0 12.876-9.6756 23.288-21.454 23.288h-0.11792c-2.9265 0.019488-5.3202-2.333-5.3625-5.268 0-3.7452 3.6146-5.2625 5.4805-5.2625 2.9521-0.04524 5.7323-1.4045 7.5884-3.7097" fill="#f5b32e"/>
<g fill="#264d9a">
<path transform="translate(220.58 .46284)" d="m8.4232 9.0648h1.0092c1.1771 0 2.1295-0.39394 2.1295-1.3502 0-0.84355-0.61595-1.4066-1.9616-1.4066-0.56046 0-0.95376 0.056376-1.1771 0.11275zm-0.056185 5.2318h-2.1302v-9.2262c0.84139-0.16843 2.0185-0.28118 3.5313-0.28118 1.7383 0 2.5228 0.28118 3.1963 0.67512 0.50358 0.39394 0.89688 1.1247 0.89688 2.0247 0 1.0127-0.7852 1.8006-1.9061 2.1381v0.11275c0.89688 0.33756 1.4012 1.0127 1.6821 2.2502 0.27954 1.4066 0.44809 1.9683 0.67214 2.3065h-2.2987c-0.27954-0.33826-0.44879-1.1818-0.72902-2.2509-0.16786-1.012-0.72902-1.4623-1.9061-1.4623h-1.0086zm-5.6622-4.8386c0 4.1071 3.0271 7.3692 7.1764 7.3692 4.0356 0 7.0072-3.2622 7.0072-7.3129 0-4.1064-2.9716-7.4249-7.0634-7.4249-4.0932 0-7.1202 3.3185-7.1202 7.3686zm16.539 0c0 5.2318-4.0932 9.3382-9.419 9.3382-5.2703 0-9.4751-4.1064-9.4751-9.3382 0-5.1191 4.2049-9.2248 9.4751-9.2248 5.3258 0 9.419 4.1057 9.419 9.2248z" mask="url(#c)"/>
<path d="m48.38 45.978c0-16.549 12.481-29.185 29.309-29.185 10.921 0 20.282 5.591 24.293 14.313l-4.569 2.6831c-3.2317-7.0449-10.81-11.629-19.724-11.629-13.484 0-23.625 10.512-23.625 23.818s10.141 23.818 23.625 23.818c9.0264 0 16.382-4.6966 20.059-11.629l4.6807 2.7951c-4.4573 8.6102-13.818 14.202-24.739 14.202-16.828 0-29.309-12.637-29.309-29.185"/>
<path d="m165.73 39.604v34.328h-16.717v-31.868c0-6.9329-4.3457-10.176-9.695-10.176-6.129 0-10.364 3.5788-10.364 11.517v30.527h-16.715v-55.91h16.715v5.2555c3.009-4.137 8.5817-6.8208 15.936-6.8208 11.256 0 20.84 8.0513 20.84 23.147"/>
</g>
</g>
</svg>
